<?xml version="1.0" encoding="utf-8"?>
<svg xmlns="http://www.w3.org/2000/svg" fill="currentColor" class="bi bi-1-square" viewBox="0 0 43 16">
  <rect x="0.519" y="0.46" width="42" height="15.056" style="fill: rgb(216, 216, 216); stroke: rgb(0, 0, 0);" rx="3.009" ry="3.009"/>
  <path d="M -0.121 -2.883 L 6.851 -2.883 Q 8.755 -2.883 9.987 -2.365 Q 11.219 -1.847 11.933 -1.049 Q 12.647 -0.251 12.927 0.743 Q 13.207 1.737 13.207 2.661 Q 13.207 3.585 12.927 4.579 Q 12.647 5.573 11.933 6.371 Q 11.219 7.169 9.987 7.687 Q 8.755 8.205 6.851 8.205 L 2.567 8.205 L 2.567 16.941 L -0.121 16.941 Z M 2.567 5.853 L 6.095 5.853 Q 6.879 5.853 7.649 5.727 Q 8.419 5.601 9.021 5.265 Q 9.623 4.929 9.987 4.299 Q 10.351 3.669 10.351 2.661 Q 10.351 1.653 9.987 1.023 Q 9.623 0.393 9.021 0.057 Q 8.419 -0.279 7.649 -0.405 Q 6.879 -0.531 6.095 -0.531 L 2.567 -0.531 Z M 33.365 5.853 L 33.365 15.625 Q 32.637 16.073 31.713 16.409 Q 30.789 16.745 29.795 16.983 Q 28.801 17.221 27.779 17.333 Q 26.757 17.445 25.861 17.445 Q 23.341 17.445 21.367 16.605 Q 19.393 15.765 18.035 14.337 Q 16.677 12.909 15.963 11.019 Q 15.249 9.129 15.249 7.029 Q 15.249 4.817 16.019 2.913 Q 16.789 1.009 18.147 -0.391 Q 19.505 -1.791 21.409 -2.589 Q 23.313 -3.387 25.581 -3.387 Q 28.325 -3.387 30.061 -2.701 Q 31.797 -2.015 32.973 -0.811 L 31.069 1.233 Q 29.837 0.057 28.465 -0.405 Q 27.093 -0.867 25.581 -0.867 Q 23.873 -0.867 22.501 -0.237 Q 21.129 0.393 20.149 1.457 Q 19.169 2.521 18.637 3.963 Q 18.105 5.405 18.105 7.029 Q 18.105 8.709 18.693 10.151 Q 19.281 11.593 20.317 12.657 Q 21.353 13.721 22.753 14.323 Q 24.153 14.925 25.805 14.925 Q 27.233 14.925 28.507 14.659 Q 29.781 14.393 30.677 13.889 L 30.677 8.373 L 26.281 8.373 L 26.281 5.853 Z M 43.587 11.341 L 36.699 11.341 L 36.699 8.989 L 43.587 8.989 Z M 52.125 0.197 L 48.485 3.557 L 46.917 1.681 L 52.433 -2.883 L 54.813 -2.883 L 54.813 16.941 L 52.125 16.941 Z M 64.251 12.097 Q 64.727 13.525 65.525 14.225 Q 66.323 14.925 67.891 14.925 Q 68.675 14.925 69.361 14.659 Q 70.047 14.393 70.579 13.931 Q 71.111 13.469 71.419 12.811 Q 71.727 12.153 71.727 11.341 Q 71.727 10.109 71.209 9.367 Q 70.691 8.625 69.879 8.247 Q 69.067 7.869 68.087 7.757 Q 67.107 7.645 66.155 7.645 L 66.155 5.293 Q 67.695 5.293 68.675 5.083 Q 69.655 4.873 70.215 4.481 Q 70.775 4.089 70.999 3.501 Q 71.223 2.913 71.223 2.185 Q 71.223 0.589 70.271 -0.223 Q 69.319 -1.035 67.891 -1.035 Q 66.799 -1.035 65.917 -0.405 Q 65.035 0.225 64.587 1.261 L 61.843 0.337 Q 62.627 -1.567 64.237 -2.477 Q 65.847 -3.387 67.835 -3.387 Q 69.039 -3.387 70.145 -3.065 Q 71.251 -2.743 72.091 -2.071 Q 72.931 -1.399 73.421 -0.377 Q 73.911 0.645 73.911 2.017 Q 73.911 3.585 72.973 4.817 Q 72.035 6.049 70.523 6.497 L 70.523 6.553 Q 71.447 6.721 72.175 7.169 Q 72.903 7.617 73.407 8.289 Q 73.911 8.961 74.163 9.787 Q 74.415 10.613 74.415 11.537 Q 74.415 12.965 73.869 14.043 Q 73.323 15.121 72.413 15.835 Q 71.503 16.549 70.313 16.913 Q 69.123 17.277 67.807 17.277 Q 65.539 17.277 63.817 16.241 Q 62.095 15.205 61.423 12.965 Z" transform="matrix(0.472115, 0, 0, 0.431214, 4.260268, 4.515949)" style="fill: rgb(0, 0, 0); text-wrap-mode: nowrap;"/>
</svg>