<?xml version="1.0" encoding="utf-8"?>
<svg xmlns="http://www.w3.org/2000/svg" fill="currentColor" class="bi bi-1-square" viewBox="0 0 25 16">
  <rect x="0.519" y="0.46" width="24" height="15.056" style="fill: rgb(216, 216, 216); stroke: rgb(0, 0, 0);" rx="3.009" ry="3.009"/>
  <path d="M -0.121 -2.883 L 6.851 -2.883 Q 8.755 -2.883 9.987 -2.365 Q 11.219 -1.847 11.933 -1.049 Q 12.647 -0.251 12.927 0.743 Q 13.207 1.737 13.207 2.661 Q 13.207 3.585 12.927 4.579 Q 12.647 5.573 11.933 6.371 Q 11.219 7.169 9.987 7.687 Q 8.755 8.205 6.851 8.205 L 2.567 8.205 L 2.567 16.941 L -0.121 16.941 Z M 2.567 5.853 L 6.095 5.853 Q 6.879 5.853 7.649 5.727 Q 8.419 5.601 9.021 5.265 Q 9.623 4.929 9.987 4.299 Q 10.351 3.669 10.351 2.661 Q 10.351 1.653 9.987 1.023 Q 9.623 0.393 9.021 0.057 Q 8.419 -0.279 7.649 -0.405 Q 6.879 -0.531 6.095 -0.531 L 2.567 -0.531 Z M 33.367 5.853 L 33.367 15.625 Q 32.639 16.073 31.715 16.409 Q 30.791 16.745 29.797 16.983 Q 28.803 17.221 27.781 17.333 Q 26.759 17.445 25.863 17.445 Q 23.343 17.445 21.368 16.605 Q 19.394 15.765 18.036 14.337 Q 16.678 12.909 15.964 11.019 Q 15.25 9.129 15.25 7.029 Q 15.25 4.817 16.02 2.913 Q 16.79 1.009 18.148 -0.391 Q 19.506 -1.791 21.41 -2.589 Q 23.315 -3.387 25.583 -3.387 Q 28.327 -3.387 30.063 -2.701 Q 31.799 -2.015 32.975 -0.811 L 31.071 1.233 Q 29.839 0.057 28.467 -0.405 Q 27.095 -0.867 25.583 -0.867 Q 23.875 -0.867 22.503 -0.237 Q 21.13 0.393 20.15 1.457 Q 19.17 2.521 18.638 3.963 Q 18.106 5.405 18.106 7.029 Q 18.106 8.709 18.694 10.151 Q 19.282 11.593 20.318 12.657 Q 21.354 13.721 22.755 14.323 Q 24.155 14.925 25.807 14.925 Q 27.235 14.925 28.509 14.659 Q 29.783 14.393 30.679 13.889 L 30.679 8.373 L 26.283 8.373 L 26.283 5.853 Z" transform="matrix(0.468897, 0, 0, 0.431214, 4.751397, 4.536247)" style="fill: rgb(0, 0, 0); text-wrap-mode: nowrap;"/>
</svg>