<?xml version="1.0" encoding="utf-8"?>
<svg xmlns="http://www.w3.org/2000/svg" fill="currentColor" class="bi bi-1-square" viewBox="0 0 16 16">
  <rect x="0.519" y="0.46" width="15.011" height="15.056" style="fill: rgb(216, 216, 216); stroke: rgb(0, 0, 0);" rx="3.009" ry="3.009"/>
  <path d="M 16.763 5.853 L 16.763 15.625 Q 16.035 16.073 15.111 16.409 Q 14.187 16.745 13.193 16.983 Q 12.199 17.221 11.177 17.333 Q 10.155 17.445 9.259 17.445 Q 6.739 17.445 4.765 16.605 Q 2.791 15.765 1.433 14.337 Q 0.075 12.909 -0.639 11.019 Q -1.353 9.129 -1.353 7.029 Q -1.353 4.817 -0.583 2.913 Q 0.187 1.009 1.545 -0.391 Q 2.903 -1.791 4.807 -2.589 Q 6.711 -3.387 8.979 -3.387 Q 11.723 -3.387 13.459 -2.701 Q 15.195 -2.015 16.371 -0.811 L 14.467 1.233 Q 13.235 0.057 11.863 -0.405 Q 10.491 -0.867 8.979 -0.867 Q 7.271 -0.867 5.899 -0.237 Q 4.527 0.393 3.547 1.457 Q 2.567 2.521 2.035 3.963 Q 1.503 5.405 1.503 7.029 Q 1.503 8.709 2.091 10.151 Q 2.679 11.593 3.715 12.657 Q 4.751 13.721 6.151 14.323 Q 7.551 14.925 9.203 14.925 Q 10.631 14.925 11.905 14.659 Q 13.179 14.393 14.075 13.889 L 14.075 8.373 L 9.679 8.373 L 9.679 5.853 Z" transform="matrix(0.475379, 0, 0, 0.431214, 4.091048, 4.527668)" style="fill: rgb(0, 0, 0); text-wrap-mode: nowrap;"/>
</svg>