<?xml version="1.0" encoding="utf-8"?>
<svg xmlns="http://www.w3.org/2000/svg" fill="currentColor" class="bi bi-1-square" viewBox="0 0 25 16">
  <rect x="0.519" y="0.46" width="24" height="15.056" style="fill: rgb(216, 216, 216); stroke: rgb(0, 0, 0);" rx="3.009" ry="3.009"/>
  <path d="M -0.121 -2.883 L 3.407 -2.883 L 14.327 13.413 L 14.383 13.413 L 14.383 -2.883 L 17.071 -2.883 L 17.071 16.941 L 13.655 16.941 L 2.623 0.645 L 2.567 0.645 L 2.567 16.941 L -0.121 16.941 Z M 22.166 -2.883 L 29.138 -2.883 Q 31.042 -2.883 32.274 -2.365 Q 33.506 -1.847 34.22 -1.049 Q 34.934 -0.251 35.214 0.743 Q 35.494 1.737 35.494 2.661 Q 35.494 3.613 35.158 4.495 Q 34.822 5.377 34.192 6.091 Q 33.562 6.805 32.652 7.295 Q 31.742 7.785 30.622 7.897 L 36.25 16.941 L 32.89 16.941 L 27.85 8.205 L 24.854 8.205 L 24.854 16.941 L 22.166 16.941 Z M 24.854 5.853 L 28.382 5.853 Q 29.166 5.853 29.936 5.727 Q 30.706 5.601 31.308 5.265 Q 31.91 4.929 32.274 4.299 Q 32.638 3.669 32.638 2.661 Q 32.638 1.653 32.274 1.023 Q 31.91 0.393 31.308 0.057 Q 30.706 -0.279 29.936 -0.405 Q 29.166 -0.531 28.382 -0.531 L 24.854 -0.531 Z" transform="matrix(0.468897, 0, 0, 0.431214, 4.515059, 4.536247)" style="fill: rgb(0, 0, 0); text-wrap-mode: nowrap;"/>
</svg>