<?xml version="1.0" encoding="utf-8"?>
<svg xmlns="http://www.w3.org/2000/svg" fill="currentColor" class="bi bi-1-square" viewBox="0 0 16 16">
  <rect x="0.519" y="0.46" width="15.011" height="15.056" style="fill: rgb(216, 216, 216); stroke: rgb(0, 0, 0);" rx="3.009" ry="3.009"/>
  <path d="M -0.121 -2.883 L 6.851 -2.883 Q 8.755 -2.883 9.987 -2.365 Q 11.219 -1.847 11.933 -1.049 Q 12.647 -0.251 12.927 0.743 Q 13.207 1.737 13.207 2.661 Q 13.207 3.613 12.871 4.495 Q 12.535 5.377 11.905 6.091 Q 11.275 6.805 10.365 7.295 Q 9.455 7.785 8.335 7.897 L 13.963 16.941 L 10.603 16.941 L 5.563 8.205 L 2.567 8.205 L 2.567 16.941 L -0.121 16.941 Z M 2.567 5.853 L 6.095 5.853 Q 6.879 5.853 7.649 5.727 Q 8.419 5.601 9.021 5.265 Q 9.623 4.929 9.987 4.299 Q 10.351 3.669 10.351 2.661 Q 10.351 1.653 9.987 1.023 Q 9.623 0.393 9.021 0.057 Q 8.419 -0.279 7.649 -0.405 Q 6.879 -0.531 6.095 -0.531 L 2.567 -0.531 Z" transform="matrix(0.475379, 0, 0, 0.431214, 5.202366, 4.527668)" style="fill: rgb(0, 0, 0); text-wrap-mode: nowrap;"/>
</svg>